<?xml version="1.0" encoding="utf-8"?>
<!-- Generator: Adobe Illustrator 27.2.0, SVG Export Plug-In . SVG Version: 6.00 Build 0)  -->
<svg version="1.1" id="Layer_1" xmlns="http://www.w3.org/2000/svg" xmlns:xlink="http://www.w3.org/1999/xlink" x="0px" y="0px"
	 viewBox="0 0 700 700" style="enable-background:new 0 0 700 700;" xml:space="preserve">
<style type="text/css">
	.st0{fill:#009600;}
	.st1{fill:#FFFFFF;}
</style>
<path class="st0" d="M0,0h500c110.5,0,200,89.5,200,200v500H200C89.5,700,0,610.5,0,500V0z"/>
<path class="st1" d="M570.9,119.5L376.9,239.4l19.3,9.2l184.1-113.8L570.9,119.5L570.9,119.5z M167.6,159.5l-7.7,16.2l286.6,136.7
	l1.4,2.7c3.2,6.3,9.7,12.5,17.7,16.4l0,0l0,0c8.6,4.1,17.2,5.4,23.6,4.4c6.4-1,10.4-3.6,12.5-8.2c2.2-4.6,1.7-8.4-1.7-13.6
	s-10.1-10.9-18.9-15.1c-8.1-3.8-16.9-5-23.9-3.5l-3,0.6L167.6,159.5L167.6,159.5z M288.7,257.2c-40.9,2.9-77.4,8.6-106.1,16.3
	c-21.2,5.6-38.1,12.4-49,19.3c-10.9,6.9-14.7,13-14.7,17.3s3.8,10.4,14.7,17.3c10.9,6.9,27.8,13.6,49,19.3
	C224.9,357.8,284.4,365,350,365c49.2,0,94.9-4,132.5-10.8c-8.1-0.3-16.5-2.5-24.7-6.4l0,0l0,0c-10.2-4.9-18.6-12.4-24.1-21.5
	L361,291.6l-36.5,22.6c-4.5,9.6-12.1,18-21.7,24l0,0l0,0c-10.7,6.6-22.3,10.1-33.3,9.6c-11-0.5-21.8-5.5-27.9-15.3
	c-6.1-9.8-5.4-21.7-0.5-31.3c4.9-9.6,13.3-17.8,23.8-24.2l0,0h0c9.6-6,20.5-9,31.2-8.7l6.9-4.3L288.7,257.2L288.7,257.2z
	 M416.1,257.5l-0.5,0.3l41.3,19.7c10.6-1.4,21.7,0.4,31.9,5.3h0c11.1,5.3,20.4,12.5,26.3,21.5c5.9,9,7.8,20.8,2.9,31.2
	c-3.1,6.5-8.2,11.3-14.2,14.4c4.7-1.1,9.3-2.2,13.6-3.3c21.2-5.6,38.1-12.4,49-19.3c10.9-6.9,14.7-13,14.7-17.3s-3.8-10.4-14.7-17.3
	c-10.9-6.9-27.8-13.6-49-19.3C489.9,266.1,455.1,260.5,416.1,257.5z M322.3,273.2l-21.5,13.3l-3-0.3c-7.1-0.7-15.8,1.4-23.4,6.1l0,0
	c-8.3,5.1-14.4,11.5-17.2,17.1c-2.8,5.6-2.9,9.4-0.2,13.7c2.7,4.3,6.8,6.5,13.3,6.8c6.5,0.3,14.9-1.9,23-6.9
	c7.6-4.7,13.3-11.5,15.8-18.2l1.1-2.9l31.4-19.4L322.3,273.2L322.3,273.2z M133.6,347.9l26.9,44.9l33.3-25
	c-5.3-1.2-10.6-2.5-15.9-3.9C160.6,359.3,145.7,354,133.6,347.9L133.6,347.9z M566.4,347.9c-12.1,6.1-27,11.4-44.3,16
	c-6.9,1.8-14.3,3.6-21.9,5.2l38.9,24.4L566.4,347.9z M581,358.5l-17.6,29.3c0.7-0.3,1.5-0.6,2.2-1c5.9-2.7,10.3-5.6,12.6-7.9
	c2.4-2.4,2.7-3.7,2.7-4.9V358.5L581,358.5z M119,358.5V374c0,1.2,0.4,2.5,2.7,4.9c2.4,2.4,6.7,5.2,12.6,7.9c0.7,0.3,1.4,0.6,2.2,1
	L119,358.5L119,358.5z M217.6,372.5l-36.7,27.6c1.9,0.4,3.7,0.7,5.7,1.1c21.7,3.9,47.2,6.8,74.6,8.8L225,373.8
	C222.6,373.4,220.1,373,217.6,372.5z M451.6,377.1c-23.3,2.9-48.6,4.8-75.2,5.6l37.1,27.8L451.6,377.1z M478.9,377.1l-37.2,32.6
	c26.3-2,50.8-4.8,71.7-8.6c1-0.2,2-0.4,3-0.6L478.9,377.1z M254.5,377.8l32.3,32.3l36.7-27.5C299.3,381.9,276.1,380.3,254.5,377.8z
	 M350,385.2l-36.3,27.2c12,0.3,24.2,0.5,36.3,0.5c12.1,0,24.3-0.2,36.3-0.5L350,385.2z M119,399.1V534c0,5.5,4.3,11.7,16.1,18.4
	c4,2.3,8.6,4.5,13.9,6.6V411.1c-8.3-2.4-15.7-5-22.1-7.9C124.1,401.9,121.4,400.6,119,399.1L119,399.1z M581,399.1
	c-2.4,1.4-5.1,2.8-7.9,4.1c-6.4,2.9-13.8,5.6-22.1,7.9V559c5.3-2.1,10-4.3,13.9-6.6c11.8-6.7,16.1-12.9,16.1-18.4V399.1z M167,415.6
	v149.5c6.2,1.8,12.9,3.5,20,5.1c25.7,5.7,56.8,9.8,90,12.2V429c-34.3-1.9-66.5-5.3-93.6-10.1C177.9,417.9,172.5,416.8,167,415.6z
	 M533,415.6c-5.5,1.2-10.9,2.3-16.4,3.2c-27.1,4.8-59.3,8.2-93.6,10.1v153.4c33.3-2.4,64.3-6.5,90-12.2c7.1-1.6,13.8-3.3,20-5.1
	V415.6z M295,429.9v153.7c18,1,36.5,1.4,55,1.4s37-0.5,55-1.4V429.9c-18.1,0.8-36.5,1.1-55,1.1C331.5,431,313.1,430.6,295,429.9z"/>
</svg>
