<?xml version="1.0" encoding="utf-8"?>
<!-- Generator: Adobe Illustrator 27.2.0, SVG Export Plug-In . SVG Version: 6.00 Build 0)  -->
<svg version="1.1" id="Layer_1" xmlns="http://www.w3.org/2000/svg" xmlns:xlink="http://www.w3.org/1999/xlink" x="0px" y="0px"
	 viewBox="0 0 700 700" style="enable-background:new 0 0 700 700;" xml:space="preserve">
<style type="text/css">
	.st0{fill:#009600;}
	.st1{fill:#FFFFFF;}
</style>
<path class="st0" d="M0,0h500c110.5,0,200,89.5,200,200v500H200C89.5,700,0,610.5,0,500V0z"/>
<path class="st1" d="M322.2,120.9c-15.2-0.2-27.7,33.5-12.3,39.8l8.9,3.6l17.8-15.5l-1.8-23.5l-8.7-3.6c-1.1-0.4-2.1-0.7-3.2-0.8
	L322.2,120.9L322.2,120.9z M456.6,128.8h-2.3c-7.4,0.3-15.3,2.1-23.3,5.8c-21.2,9.7-43.6,32.7-59.7,75.7L268.4,488.7l-0.1,0.2v0.2
	c0.9,0.5,3.6,1.9,8,4c9.8,4.8,24,15.7,26.1,38.8v0.5l-1,55.6H398c-0.1-17.6,1.4-34.5,8.1-51.5c11.7-29.4,39.3-54.9,97-77
	c0-0.2,0,0,0.1-0.4c0.3-2,0.4-6,0-11c-1-10.1-4-24.9-8.6-42.2c-9.2-34.7-24.8-80.2-42.4-124.9l-2.4-6.2l5.2-4.2
	c36.1-28.2,51.1-56.4,53.8-79.6c2.7-23.1-6.5-41.5-21.3-52.2C478.8,132.5,468.2,128.8,456.6,128.8L456.6,128.8z M354.5,146.4l0.7,10
	l-7.6,6.6l21.7,8.9c1.2-2.2,2.5-4.3,3.8-6.3l4-9.9L354.5,146.4z M423.5,165c8.8,0,16,7.2,16,16s-7.2,16-16,16s-16-7.2-16-16
	S414.7,165,423.5,165z M286.8,214.7c-15.2-0.3-27.9,33.4-12.3,39.8l8.8,3.6l17.8-15.5l-1.7-23.6l-8.8-3.6c-1.1-0.4-2.1-0.6-3.1-0.7
	L286.8,214.7z M319,240.2l0.7,10l-7.6,6.6l19.9,8.1l6.2-16.8L319,240.2z M390.6,260c8.8,0,16,7.2,16,16s-7.2,16-16,16s-16-7.2-16-16
	S381.8,260,390.6,260z M250.8,310.6c-15.3-0.3-27.8,33.4-12.4,39.8l8.9,3.6l17.8-15.5l-1.8-23.6l-8.7-3.6c-1.1-0.4-2.1-0.6-3.1-0.7
	L250.8,310.6z M283,336.1l0.7,10l-7.6,6.6l20.4,8.3l6.2-16.8L283,336.1z M350.2,355.4c8.8,0,16,7.2,16,16s-7.2,16-16,16
	s-16-7.2-16-16S341.4,355.4,350.2,355.4z M210.1,409.8c-15.2-0.3-27.8,33.4-12.3,39.8l8.8,3.6l17.8-15.5l-1.8-23.6l-8.7-3.6
	c-1.1-0.4-2.1-0.6-3.1-0.7L210.1,409.8z M242.3,435.3l0.7,10l-7.6,6.6l22.8,9.3l6.8-16.6L242.3,435.3z M311.6,453.8
	c8.8,0,16,7.2,16,16s-7.2,16-16,16s-16-7.2-16-16S302.8,453.8,311.6,453.8z"/>
</svg>
