<?xml version="1.0" encoding="utf-8"?>
<!-- Generator: Adobe Illustrator 27.2.0, SVG Export Plug-In . SVG Version: 6.00 Build 0)  -->
<svg version="1.1" id="Layer_1" xmlns="http://www.w3.org/2000/svg" xmlns:xlink="http://www.w3.org/1999/xlink" x="0px" y="0px"
	 viewBox="0 0 700 700" style="enable-background:new 0 0 700 700;" xml:space="preserve">
<style type="text/css">
	.st0{fill:#FF0000;}
	.st1{fill:#FFFFFF;}
</style>
<path class="st0" d="M0,0l500,0c110.5,0,200,89.5,200,200v500H200C89.5,700,0,610.5,0,500L0,0z"/>
<path class="st1" d="M585.9,112.8l-17.7,2.4l-89.4,12l-6.2,0.8l-1.6,6.1l-18.5,72.2L316.4,343.5c-2.1-4.4-4.3-8.7-6.9-12.8
	c-7.3-11.9-18.3-22.4-34.8-25.7c-6.5-1.3-12.7-1.7-18.5-1.3c-17.6,1.3-32.2,9.8-41.7,22.5c-10.9,14.7-15.9,34.1-15.3,54.4
	c-36.2,4.5-66.4,31.4-80.7,64.3c-15.6,35.9-11.9,81,24.7,111.2c43.3,35.8,88.3,31.6,119.9,11.2c28.6-18.5,47.8-48.1,50.8-74.8
	c18.6-2.8,38.4-9,56.4-18c20.5-10.2,38.5-23.4,48.4-40.1l7.6-12.9l-14.9-1.2c-34.6-2.8-53.8-12.9-66.4-26.2l146-147.2l18.9,1.4
	l6.2,0.4l2.8-5.5l6.1-11.9l25,11.9l8-16.9l-24.5-11.7l7.7-14.9L567,212l8-16.9l-25.3-12L558,167l27,13l8-16.9l-26.5-12.6l11.2-21.8
	C577.8,128.7,585.9,112.8,585.9,112.8z M461.4,223.8l13.2,13.1L274.4,438.8c-1.6-2-3.2-3.9-5.1-5.7c-2.6-2.6-5.5-5-8.5-7
	L461.4,223.8L461.4,223.8z M225.9,433.9c10.9,0,21.8,4.1,30.2,12.4c16.8,16.7,16.9,43.6,0.2,60.4c-16.7,16.8-43.6,16.9-60.4,0.2
	c-16.8-16.7-16.9-43.6-0.2-60.4C204.1,438.2,215,434,225.9,433.9L225.9,433.9z"/>
</svg>
