<?xml version="1.0" encoding="utf-8"?>
<!-- Generator: Adobe Illustrator 27.2.0, SVG Export Plug-In . SVG Version: 6.00 Build 0)  -->
<svg version="1.1" id="Layer_1" xmlns="http://www.w3.org/2000/svg" xmlns:xlink="http://www.w3.org/1999/xlink" x="0px" y="0px"
	 viewBox="0 0 700 700" style="enable-background:new 0 0 700 700;" xml:space="preserve">
<style type="text/css">
	.st0{fill:#009600;}
	.st1{fill:#FFFFFF;}
</style>
<path class="st0" d="M0,0h500c110.5,0,200,89.5,200,200v500H200C89.5,700,0,610.5,0,500V0z"/>
<path class="st1" d="M246.6,120.3l-15.4,415.6L350,580.4l118.8-44.5l-15.4-415.6L350,135.1L246.6,120.3z M158,183c-36,0-36,78,0,78
	h9.5l13-39l-13-39H158z M532.5,183l-13,39l13,39h9.5c36,0,36-78,0-78H532.5z M286,206c8.8,0,16,7.2,16,16c0,8.8-7.2,16-16,16
	s-16-7.2-16-16C270,213.2,277.2,206,286,206z M414,206c8.8,0,16,7.2,16,16c0,8.8-7.2,16-16,16s-16-7.2-16-16
	C398,213.2,405.2,206,414,206z M196.4,213l2.1,6.2l1,2.8l-3,9h28l0.7-18H196.4z M474.8,213l0.7,18h28.1l-2.1-6.2l-1-2.8l3-9H474.8z
	 M154,311c-36,0-36,78,0,78h9.5l13-39l-13-39H154z M536.5,311l-13,39l13,39h9.5c36,0,36-78,0-78H536.5z M286,334c8.8,0,16,7.2,16,16
	s-7.2,16-16,16s-16-7.2-16-16S277.2,334,286,334z M414,334c8.8,0,16,7.2,16,16s-7.2,16-16,16s-16-7.2-16-16S405.2,334,414,334z
	 M192.4,341l2.1,6.2l1,2.8l-3,9h27.3l0.7-18H192.4z M479.5,341l0.7,18h27.4l-2.1-6.2l-1-2.8l3-9H479.5L479.5,341z M150,439
	c-36,0-36,78,0,78h9.5l13-39l-13-39H150z M540.5,439l-13,39l13,39h9.5c36,0,36-78,0-78H540.5z M286,462c8.8,0,16,7.2,16,16
	s-7.2,16-16,16s-16-7.2-16-16S277.2,462,286,462z M414,462c8.8,0,16,7.2,16,16s-7.2,16-16,16s-16-7.2-16-16S405.2,462,414,462z
	 M188.5,469l2.1,6.2l0.9,2.8l-3,9h26.6l0.6-18H188.5z M484.3,469l0.6,18h26.7l-2.1-6.2l-1-2.8l3-9H484.3z"/>
</svg>
