<?xml version="1.0" encoding="utf-8"?>
<!-- Generator: Adobe Illustrator 27.2.0, SVG Export Plug-In . SVG Version: 6.00 Build 0)  -->
<svg version="1.1" id="Layer_1" xmlns="http://www.w3.org/2000/svg" xmlns:xlink="http://www.w3.org/1999/xlink" x="0px" y="0px"
	 viewBox="0 0 512 512" style="enable-background:new 0 0 512 512;" xml:space="preserve">
<style type="text/css">
	.st0{fill:#FFFFFF;}
</style>
<path d="M0,0h512v512H0V0z"/>
<path class="st0" d="M491.9,18.8l-17.7,2.4l-89.4,12l-6.2,0.8l-1.6,6.1l-18.5,72.2L222.4,249.5c-2.1-4.4-4.3-8.7-6.9-12.8
	c-7.3-11.9-18.3-22.4-34.8-25.7c-6.5-1.3-12.7-1.7-18.5-1.3c-17.6,1.3-32.2,9.8-41.7,22.5c-10.9,14.7-15.9,34.1-15.3,54.4
	C69,291.1,38.8,318,24.5,350.9c-15.6,35.9-11.9,81,24.7,111.2c43.3,35.8,88.3,31.6,119.9,11.2c28.6-18.5,47.8-48.1,50.8-74.8
	c18.6-2.8,38.4-9,56.4-18c20.5-10.2,38.5-23.4,48.4-40.1l7.6-12.9l-14.9-1.2c-34.6-2.8-53.8-12.9-66.4-26.2l146-147.2l18.9,1.4
	l6.2,0.4l2.8-5.5l6.1-11.9l25,11.9l8-16.9l-24.5-11.7l7.7-14.9l25.8,12.3l8-16.9l-25.3-12l8.3-16.1L491,86l8-16.9l-26.5-12.6
	l11.2-21.8C483.8,34.7,491.9,18.8,491.9,18.8z M367.4,129.8l13.2,13.1L180.4,344.8c-1.6-2-3.2-3.9-5.1-5.7c-2.6-2.6-5.5-5-8.5-7
	L367.4,129.8L367.4,129.8z M131.9,339.9c10.9,0,21.8,4.1,30.2,12.4c16.8,16.7,16.9,43.6,0.2,60.4c-16.7,16.8-43.6,16.9-60.4,0.2
	c-16.8-16.7-16.9-43.6-0.2-60.4C110.1,344.2,121,340,131.9,339.9L131.9,339.9z"/>
</svg>
