<?xml version="1.0" encoding="utf-8"?>
<!-- Generator: Adobe Illustrator 27.2.0, SVG Export Plug-In . SVG Version: 6.00 Build 0)  -->
<svg version="1.1" id="Layer_1" xmlns="http://www.w3.org/2000/svg" xmlns:xlink="http://www.w3.org/1999/xlink" x="0px" y="0px"
	 viewBox="0 0 367.4 203.4" style="enable-background:new 0 0 367.4 203.4;" xml:space="preserve">
<style type="text/css">
	.st0{fill:#231F20;}
	.st1{fill:#FFFFFF;stroke:#231F20;stroke-width:4;stroke-miterlimit:10;}
	.st2{fill:#FFFFFF;}
</style>
<text transform="matrix(1 0 0 1 -902.394 87.0406)" class="st2" style="font-family:'SunnySpells-Regular'; font-size:68.7945px;">Interactive</text>
<text transform="matrix(1 0 0 1 -945.9409 152.5358)" class="st2" style="font-family:'SunnySpells-Regular'; font-size:90.4916px;">Music</text>
<text transform="matrix(1 0 0 1 -775.7764 152.5338)" class="st2" style="font-family:'SunnySpells-Regular'; font-size:90.4916px;">Mixer</text>
<path class="st0" d="M76.4,68.3c-1.1,0-2.2,0-3.1-0.1c-0.5,0-0.9,0-1.1,0c-4.9,0-7.4-3.3-7.4-6.6c0-2.4,1.4-4.6,3.4-5.7V28.6
	c-2.8-1.2-4.1-3.8-4.1-6.2c0-6.7,7.7-6.7,12.8-6.7c4.9,0,11.6,0,11.6,6.2c0,2.4-1.3,4.4-3,5.7v28.7c0.1,0.1,0.3,0.2,0.4,0.3l0.3,0.2
	l0.3,0.3c1.2,1.2,1.8,2.7,1.8,4.4c0,2-0.9,3.9-2.3,5.1c-1.8,1.6-4.2,1.6-7.4,1.7h-0.7C77.4,68.2,76.9,68.3,76.4,68.3z M70.5,51.4
	L70.5,51.4z"/>
<path class="st0" d="M106,68.2c-4.4,0-7.2-2.4-8.1-5.2c-1.2,3.1-4.5,5.2-8.8,5.2c-2.4,0-8.1-0.9-8.1-9.5V25.9c0-2.5,0-10.1,8.3-10.1
	c2.2,0,4.1,0.6,5.5,1.6c1.9-1.3,4.1-1.9,6.7-1.9c13.4,0,13.4,16.8,13.4,23.2v22.4C114.9,63.8,113,68.2,106,68.2z M108.1,59.4
	L108.1,59.4z"/>
<path class="st0" d="M121.4,68.2c-12,0-12-12.5-12-19.2v-8.2c-1.8-1.4-2.9-3.6-2.9-6.3c0-3,1.2-5.1,2.9-6.3v-3c0-7,4.3-9.5,8.3-9.5
	c4.4,0,8.8,3,8.8,9.7v2c2.7,1,4.4,3.5,4.4,6.6c0,4.2-2,6.6-4.4,7.6V50c0,0.4,0,1.2,0,2.1c2.9,0.8,5.3,3.4,5.3,7.8
	C131.8,62,131.1,68.2,121.4,68.2z"/>
<path class="st0" d="M141.9,68.9c-11.2,0-18.7-10.4-18.7-25.8c0-16.1,8.3-27.8,19.7-27.8c4.2,0,8.1,1.6,11,4.6
	c3.1,3.2,4.6,7.7,4.4,12.5c-0.2,4.7-2,9-4.7,12.4c2.6,1.4,4.6,4.4,4.6,8.8C158.1,62.1,150.8,68.9,141.9,68.9z M137.5,30.6
	L137.5,30.6z"/>
<path class="st0" d="M158.5,68.2c-3.9,0-8.1-2.5-8.1-9.4V27.2c0-7.6,2.8-11.5,8.3-11.5c1.6,0,3.3,0.5,4.7,1.5
	c1.9-1.2,3.8-1.5,5.4-1.5c4.6,0,8,3.4,8,8c0,4.8-2.8,8.3-6.7,8.7c-0.9,1.1-2.3,4.7-2.3,8.3v18.7C167.7,64.5,163.8,68.2,158.5,68.2z"
	/>
<path class="st0" d="M193.5,68.8c-2.2,0-4.1-0.9-5.6-2.4c-1.8,1.4-4.1,2.4-7,2.4c-3.5,0-14.8-1.8-14.8-25.6
	c0-24.2,11.4-27.4,16.3-27.7c0.3,0,0.5,0,0.8,0c2.2,0,4,0.5,5.5,1.2c1.7-1.2,3.6-1.4,4.6-1.4c4.5,0,8.1,3.2,8.1,7.2v26.7
	c0,2,0.1,4.2,0.3,5.9c0.1,1.3,0.2,2.4,0.2,3.3C201.8,65.2,197.6,68.8,193.5,68.8z M183.8,37.4c-0.2,1.3-0.3,2.9-0.3,4.6
	c0.2-1.4,0.3-2.7,0.3-4C183.8,37.8,183.8,37.6,183.8,37.4z"/>
<path class="st0" d="M212.7,68.9c-11.3,0-18.8-10.4-18.8-25.8c0-16.1,8.2-27.8,19.6-27.8c4.2,0,7.8,1.5,10.5,4.4
	c3.5,3.7,5.1,9.3,4.7,16.4c-0.3,5-2.7,7.5-5.5,8.3c3.3,1.2,5.6,4.6,5.6,8.8C228.7,61.9,221.5,68.9,212.7,68.9z M212.3,38.4
	c-0.2,1.4-0.3,3.1-0.3,4.9c0,2.9,0.3,4.9,0.6,6.3c0.8-2.6,2.6-4.5,5-5.3c-1.3-0.4-2.5-1.1-3.4-2.1C213.2,41,212.6,39.7,212.3,38.4z
	 M208.1,30.4L208.1,30.4z"/>
<path class="st0" d="M234.7,68.2c-12,0-12-12.5-12-19.2v-8.2c-1.8-1.4-2.9-3.6-2.9-6.3c0-3,1.2-5.1,2.9-6.3v-3c0-7,4.3-9.5,8.3-9.5
	c4.4,0,8.8,3,8.8,9.7v2c2.7,1,4.4,3.5,4.4,6.6c0,4.2-2,6.6-4.4,7.6V50c0,0.4,0,1.2,0,2.1c2.9,0.8,5.3,3.4,5.3,7.8
	C245,62,244.3,68.2,234.7,68.2z"/>
<path class="st0" d="M245.8,68.5c-5.5,0-8.4-3.9-8.4-7.5V30.9c0-1.8,0.4-3.5,1.1-4.9c-1-1.4-1.6-3.2-1.6-5.1c0-5.2,3.9-9.2,9.1-9.2
	c5.2,0,9.2,3.8,9.2,8.9c0,2-0.6,3.9-1.7,5.4c0.8,1.4,1.2,3.1,1.2,4.7V61C254.7,65.3,250.9,68.5,245.8,68.5z"/>
<path class="st0" d="M264.3,68.4c-2,0-8,0-10.6-4.8l0,0c-2.5-4.9-6.8-35.1-6.8-39.3c0-4.7,3.8-8.5,8.4-8.5c4.7,0,8.2,2.6,9.3,6.7
	c0-0.1,0.1-0.2,0.1-0.3c0.8-3.7,3.6-6.3,7-6.3c3.5,0,8.8,2.3,8.8,7.2c0,2.6-4.9,33.6-6.6,39C272.4,66.4,268,68.4,264.3,68.4z"/>
<path class="st0" d="M289.3,68.9c-11.2,0-18.7-10.4-18.7-25.8c0-16.1,8.3-27.8,19.7-27.8c4.2,0,8.1,1.6,11,4.6
	c3.1,3.2,4.6,7.7,4.4,12.5c-0.2,4.7-2,9-4.7,12.4c2.6,1.4,4.6,4.4,4.6,8.8C305.5,62.1,298.2,68.9,289.3,68.9z M284.9,30.6
	L284.9,30.6z"/>
<path class="st1" d="M300,191.8H45.3c-2.7,0-4.9-2.2-4.9-4.9v-33.6c0-2.7,2.2-4.9,4.9-4.9H300c2.7,0,4.9,2.2,4.9,4.9v33.6
	C304.8,189.6,302.7,191.8,300,191.8z"/>
<g>
	<path class="st2" d="M69.8,61.6c0-0.9,1-1.8,2.5-1.8c0.6,0,1-0.6,1-1.2v-33c0-0.7-1-1.3-1.7-1.3c-1.9,0-2.4-0.9-2.4-1.9
		c0-1.2,1.7-1.7,7.8-1.7c5.4,0,6.6,0.3,6.6,1.2c0,1.3-1.4,2.1-2.2,2.4c-0.4,0.1-0.8,0.6-0.8,1.3v33c0,0.4,0.1,1.2,0.5,1.4
		c0.9,0.3,1.7,0.4,1.9,0.6c0.1,0.1,0.3,0.4,0.3,0.8c0,0.5-0.2,1-0.6,1.3c-0.6,0.5-2.7,0.5-5.1,0.6c-2.1,0.1-4.6-0.1-5.5-0.1
		C71.2,63.2,69.8,62.9,69.8,61.6z M75,57.5c-0.3,0-0.7,0-0.7,0.5c0,0.3,0.2,0.6,0.6,0.6c0.3,0,0.6-0.2,0.6-0.6
		C75.6,57.5,75,57.5,75,57.5z M74.9,49.6c-0.6,0-0.8,6.3-0.3,6.8c0.6,0.6,0.9-0.1,0.9-3.4C75.6,51.1,75.4,49.6,74.9,49.6z"/>
	<path class="st2" d="M86,58.8V25.9c0-4,0.6-5.1,3.3-5.1c1.7,0,3.8,0.7,3.8,3.1v1c0,1.9,0.1,2.8,0.3,2.8c0.7,0,1.4-7.1,8.1-7.1
		c5.8,0,8.4,5.5,8.4,18.2v22.4c0,1.4-1.4,2.1-3.9,2.1s-3.5-1.3-3.5-2.3V39.4c0-9.5-1-11.4-3.5-11.4c-3.9,0-5.6,7.6-5.6,16.9v15.3
		c0,2.8-3.1,3.1-4.3,3.1C86.8,63.2,86,62.1,86,58.8z M88.3,22.3c0-0.2-0.1-0.6-0.2-0.6c-1,0-1.2,3.2-1.2,3.9c0,0.7,0.2,2.2,0.6,2.2
		C87.9,27.8,88.3,22.4,88.3,22.3z M87.9,59.4c0-0.9-0.2-1.4-0.5-1.4c-0.2,0-0.4,0.8-0.4,1.8c0,1.4,0.7,2.7,1.4,2.7
		c0.2,0,0.6-0.4,0.6-1C89,60.6,87.9,60.7,87.9,59.4z M104.2,59.1c0-1.4-0.1-1.7-0.6-1.7c-0.4,0-0.6,0.8-0.6,1.7c0,1.9,0.7,3,1.4,3
		c0.3,0,0.6-0.3,0.6-1C105.1,60.1,104.2,60.5,104.2,59.1z"/>
	<path class="st2" d="M114.4,49.1V37.2h-0.8c-1.4,0-2.1-1.1-2.1-2.7s0.5-2.5,2.1-2.5h0.8v-6.7c0-3.4,1.2-4.5,3.3-4.5
		c2.1,0,3.8,1.3,3.8,4.7V32h2.1c1.7,0,2.3,0.8,2.3,2.1c0,1.8-0.6,3.1-2,3.1h-2.4v12.9c0,5,0.1,6.9,1.1,6.9c0.2,0,0.3,0,0.6,0
		l1.1-0.2c1.9,0,2.5,1.4,2.5,3.2c0,1.4-0.5,3.2-5.4,3.2C114.4,63.2,114.4,56.2,114.4,49.1z M113,32.8c-0.5,0-0.8,0.8-0.8,1.8
		c0,0.6,0.2,1.5,0.7,1.5c0.4,0,0.1-1.2,0.1-2.1C112.9,33.6,113.1,32.8,113,32.8z M116.7,21.7c-0.9,0-1.4,1.9-1.4,2.7
		c0,1,0.1,1.4,0.3,1.4c0.3,0,0.4-1.4,0.6-2C116.6,22.8,117.5,21.7,116.7,21.7z M117,56.4c-0.1-0.8-0.6-1.2-0.8-1.2
		c-0.6,0-0.5,1-0.5,1.5c0,0.8,1,3.9,1.9,3.9c0.3,0,0.6-0.5,0.6-0.8C118.2,59.5,117,57.7,117,56.4z"/>
	<path class="st2" d="M128.2,43.1c0-13.2,6.2-22.8,14.7-22.8c6.3,0,10.7,5.1,10.3,11.9c-0.4,8-6.9,15.3-15.3,15.3
		c-0.9,0-1.2,0.2-1.2,1c0,5.8,2.3,8.6,5.5,8.6c2.3,0,4.2-2,4.2-4.6c0-2.2,1.3-3.6,3.2-3.6c2.1,0,3.4,1.9,3.4,4.7
		c0,5.6-5.1,10.3-11.2,10.3C133.7,63.9,128.2,55.6,128.2,43.1z M131.3,32.6c0.1,0.3,0.1,0.6,0.3,0.6c0.5,0,0.9-1.1,0.8-1.7
		c-0.1-0.2-0.1-0.4-0.3-0.3C131.6,31.2,131.3,31.9,131.3,32.6z M139.3,23.8c0.5-0.1,1-0.3,0.9-0.6c0-0.3-0.4-0.6-0.9-0.6
		c-3.1,0.2-6.9,5.4-6.7,7.5c0.1,0.3,0.3,0.3,0.3,0.3C133.6,30.4,136.6,24.1,139.3,23.8z M137.5,41.8c4.7,0,9.1-5.2,9.1-9.8
		c0-3-1.6-5.1-3.7-5.1c-4.7,0-7.3,13.2-6.3,14.7C136.7,41.8,137.1,41.8,137.5,41.8z"/>
	<path class="st2" d="M155.4,58.8V27.2c0-5,0.9-6.5,3.3-6.5c2.1,0,3.4,1.8,3.4,5c0,1-0.1,1.5,0.2,1.5c0.2,0,0.2-0.3,0.3-0.7
		c0.5-1.2,2-5.8,6.1-5.8c1.9,0,3,1.2,3,3s-0.7,3.8-2.5,3.8c-3.7,0-6.5,7.6-6.5,13.3v18.7c0,2.8-2.3,3.8-4.3,3.8
		C156.2,63.2,155.4,61.6,155.4,58.8z M157.3,21.8c-0.4,0-1,1.2-1,2.2s0.3,1.4,0.5,1.4c0.4,0,0.4-1.5,0.5-1.9
		C157.4,22.9,158,21.8,157.3,21.8z M156.6,57.7c-0.2,0-0.3,0.5-0.3,1.2c0,1.7,0.6,3.2,1.2,3.2c0.2,0,0.5,0,0.5-0.5
		c0-0.3-0.5-0.8-0.7-1.7C156.9,58.7,156.9,57.7,156.6,57.7z"/>
	<path class="st2" d="M171.1,43.2c0-14,4.3-22.3,11.6-22.7c5.2-0.3,6.7,3.8,7.2,3.8c0.6,0-0.1-4,3.4-4c1.7,0,3.1,1,3.1,2.2v26.7
		c0,3.7,0.4,7.4,0.4,9.2c0,3.2-1.4,5.4-3.3,5.4c-2.2,0-3.7-2.8-3.7-6.6c0-1.2-0.1-1.8-0.3-1.8c-0.8,0-2.1,8.4-8.5,8.4
		C174.8,63.8,171.1,56.1,171.1,43.2z M178.1,60.3c-0.1-0.5-2-2.3-2.4-3.7c-0.3-0.8-0.5-2.7-1-2.7c-0.4,0-0.5,1.4,0.1,3.2
		c0.7,1.9,2,3.9,2.8,3.9C177.9,61,178.2,60.6,178.1,60.3z M188.8,38.1c0-6.1-2.3-11.2-4.8-11.2c-3,0-5.5,6.9-5.5,15.3
		c0,7.5,2,14.9,4.1,14.9C185.1,57,188.8,45.8,188.8,38.1z M179.6,60.3c-0.5,0-0.8,0.3-0.8,0.8c0,0.4,0.3,0.9,0.6,0.9
		C179.9,62.1,180.7,60.3,179.6,60.3z M191.8,58.9c0,0,0-0.8-0.5-0.8c-0.3,0-0.5,0.3-0.5,0.8c0,1.4,1,3.4,1.9,3.4
		c0.3,0,0.7-0.3,0.7-0.6C193.3,61.1,191.8,60.3,191.8,58.9z M192.1,23.5c0.3-0.9,0.6-1.6,0.6-2c0-0.3-0.1-0.3-0.3-0.3
		c-0.5,0-1.4,1-1.4,2.5c0,0.7,0.2,1.2,0.5,1.2C191.8,24.9,192,24.2,192.1,23.5z"/>
	<path class="st2" d="M198.8,43.1c0-13,6.1-22.8,14.6-22.8c6.8,0,10.8,5.6,10.3,15.5c-0.1,2.5-1,3.9-2.8,3.9c-5,0-3.6-4.2-3.6-7.4
		c0-3-1.3-5.5-3.6-5.5c-3.8,0-6.6,6.7-6.6,16.4c0,8.7,2.2,13.9,6.4,13.9c2,0,3.7-2.1,3.7-4.2c0-2.1,0.9-4.1,3.1-4.1
		c2.2,0,3.5,2,3.5,4.3c0,5.6-4.7,10.7-11.1,10.7C204.3,63.9,198.8,55.5,198.8,43.1z M201.9,32.4c0.1,0.3,0.1,0.6,0.3,0.6
		c0.5,0,0.9-1.1,0.8-1.7c-0.1-0.2-0.1-0.4-0.3-0.3C202.2,31,201.9,31.7,201.9,32.4z M209.9,23.6c0.5-0.1,1-0.3,0.9-0.6
		c0-0.3-0.4-0.6-0.9-0.6c-3.1,0.2-6.9,5.4-6.7,7.5c0.1,0.3,0.3,0.3,0.3,0.3C204.1,30.2,207.2,23.9,209.9,23.6z"/>
	<path class="st2" d="M227.7,49.1V37.2h-0.8c-1.4,0-2.1-1.1-2.1-2.7s0.5-2.5,2.1-2.5h0.8v-6.7c0-3.4,1.2-4.5,3.3-4.5
		s3.8,1.3,3.8,4.7V32h2.1c1.7,0,2.3,0.8,2.3,2.1c0,1.8-0.6,3.1-2,3.1h-2.4v12.9c0,5,0.1,6.9,1.1,6.9c0.2,0,0.3,0,0.5,0l1.1-0.2
		c1.9,0,2.5,1.4,2.5,3.2c0,1.4-0.5,3.2-5.4,3.2C227.7,63.2,227.7,56.2,227.7,49.1z M226.2,32.8c-0.5,0-0.8,0.8-0.8,1.8
		c0,0.6,0.2,1.5,0.7,1.5c0.4,0,0.1-1.2,0.1-2.1C226.1,33.6,226.4,32.8,226.2,32.8z M229.9,21.7c-0.9,0-1.4,1.9-1.4,2.7
		c0,1,0.1,1.4,0.3,1.4c0.3,0,0.4-1.4,0.6-2C229.8,22.8,230.7,21.7,229.9,21.7z M230.2,56.4c-0.1-0.8-0.6-1.2-0.8-1.2
		c-0.5,0-0.5,1-0.5,1.5c0,0.8,1,3.9,1.9,3.9c0.3,0,0.6-0.5,0.6-0.8C231.4,59.5,230.3,57.7,230.2,56.4z"/>
	<path class="st2" d="M241.9,20.9c0-2.5,1.7-4.2,4.1-4.2c2.5,0,4.2,1.6,4.2,3.9c0,2.4-1.9,4.3-4.3,4.3
		C243.6,24.8,241.9,23.2,241.9,20.9z M242.4,61V30.9c0-1.7,0.8-4.6,3.4-4.6s3.9,2.5,3.9,4.3V61c0,1.4-1.7,2.5-3.9,2.5
		C243.6,63.5,242.4,62.4,242.4,61z M245.3,18.5c0-0.4-0.2-0.7-0.7-0.7c-1.1,0-1.9,1.5-1.9,2.9c0,0.6,0.1,1.8,0.6,1.8
		c0.4,0,0.3-1.5,0.4-1.8C244,19.1,245.3,19.3,245.3,18.5z M244.2,29.2c0.1-0.3,0.4-1.2,0.1-1.2c-1,0-1.3,2.3-1.3,3.2
		s0.2,1.8,0.6,1.8C244.2,33,243.8,30.4,244.2,29.2z"/>
	<path class="st2" d="M258.1,61.2c-1.6-2.8-6.2-31.8-6.2-37c0-1.9,1.4-3.5,3.4-3.5c1.9,0,4.1,0.8,4.5,3.4s3.1,32.6,4.3,32.6
		c0.3,0,1-4.2,1.9-10.5c0.9-5.7,2.5-18.9,3.5-23c0.3-1.6,1.2-2.4,2.1-2.4c1.1,0,3.8,0.8,3.8,2.2c0,1.8-4.7,32.3-6.4,37.5
		c-0.8,2.3-3.5,2.9-4.8,2.9C261.1,63.4,259,62.8,258.1,61.2z M253.9,22.2c-0.5,0-1,1.7-1,3.5c0,1.1,0.1,1.6,0.3,1.6
		c0.5,0,0.4-3.2,1-3.9C254.6,22.7,254.2,22.2,253.9,22.2z M258.6,57.5c-0.3,0-0.3,0.6-0.3,0.8c0,0.6,0.6,3.3,1.4,3.3
		c0.4,0,0.7-0.5,0.3-1.2C259.3,59.4,259.2,57.5,258.6,57.5z M271.1,22.2c-0.4,0-0.8,1.3-0.8,2.3c0,0.4,0.1,1,0.3,1
		c0.4,0,0.8-2,0.8-2.4C271.4,22.6,271.3,22.2,271.1,22.2z"/>
	<path class="st2" d="M275.6,43.1c0-13.2,6.2-22.8,14.7-22.8c6.3,0,10.7,5.1,10.3,11.9c-0.4,8-6.9,15.3-15.3,15.3
		c-0.9,0-1.2,0.2-1.2,1c0,5.8,2.3,8.6,5.5,8.6c2.3,0,4.2-2,4.2-4.6c0-2.2,1.3-3.6,3.2-3.6c2.1,0,3.4,1.9,3.4,4.7
		c0,5.6-5.1,10.3-11.2,10.3C281.1,63.9,275.6,55.6,275.6,43.1z M278.8,32.6c0.1,0.3,0.1,0.6,0.3,0.6c0.5,0,0.9-1.1,0.8-1.7
		c-0.1-0.2-0.1-0.4-0.3-0.3C279,31.2,278.7,31.9,278.8,32.6z M286.8,23.8c0.5-0.1,1-0.3,0.9-0.6c0-0.3-0.4-0.6-0.9-0.6
		c-3.1,0.2-6.9,5.4-6.7,7.5c0.1,0.3,0.3,0.3,0.3,0.3C281,30.4,284,24.1,286.8,23.8z M285,41.8c4.7,0,9.1-5.2,9.1-9.8
		c0-3-1.6-5.1-3.7-5.1c-4.7,0-7.3,13.2-6.3,14.7C284.1,41.8,284.5,41.8,285,41.8z"/>
</g>
<g>
	<path class="st0" d="M20.1,184.4c-3.1,0-8.2-1.6-8.2-12.6V98.2c0-5.5,0-11.2,2.2-14.8c1.9-3,4.6-4.8,7.6-4.8
		c6.6,0,11.2,7.6,14.8,14.4c4.7-8.6,8.8-14.4,14.3-14.4c7.3,0,12.1,6.8,12.1,17.3v35.5c0,7.1-4.9,13-10.9,13
		c-4.3,0-9.3-2.3-9.3-13.3l0.1-14.3c-1.8,2-3.8,3.3-6.4,3.3c-2,0-3.8-0.9-5.4-2.4v53.6C31.1,180.4,25.4,184.4,20.1,184.4z"/>
	<path class="st0" d="M87.7,144.4c-2.1,0-4.5-0.8-6.1-2.8c-2.1,1.6-4.9,2.8-8.2,2.8c-10.6,0-17.7-8-17.7-19.8V87.9
		c0-5.4,3.9-9.3,9.3-9.3c5.6,0,10.3,4.4,10.3,9.6v35.5c0,0.5,0,0.9,0.1,1.3c1.3-1.4,2.9-4.4,2.9-6.8V89.3c0-7.9,5-10.7,9.3-10.7
		c4.8,0,10.3,3.1,10.3,11.8v42.3C98,140,94.1,144.4,87.7,144.4z"/>
	<path class="st0" d="M110.2,145.2c-10.1,0-20.6-8.5-20.6-22.8c0-5.7,3.5-10.2,8.5-11.1c-4.3-5.2-6.8-10-6.8-15.1
		c0-10.9,7.8-18.3,19.4-18.3c11.1,0,18.8,10.5,18.8,19.9c0,5.3-3.2,10-7.4,11.6c5.2,5.9,8,10.6,8,16.3
		C130.2,137,121.8,145.2,110.2,145.2z M108.3,122.3c0.3,2,1,4.1,1.7,5.1c0-0.2,0.1-0.4,0.1-0.7C110,125.1,109.4,123.8,108.3,122.3z"
		/>
	<path class="st0" d="M133.7,144.8c-6.3,0-9.5-4.2-9.5-8.3V96.9c0-2.3,0.6-4.7,1.7-6.6c-1.5-1.8-2.4-4.1-2.4-6.6
		c0-6,4.5-10.5,10.4-10.5c6,0,10.5,4.3,10.5,10.1c0,2.7-1,5.1-2.6,7c1.2,1.8,1.9,4,1.9,6.2v40.1
		C143.7,141.2,139.4,144.8,133.7,144.8z M134.5,83.9L134.5,83.9z"/>
	<path class="st0" d="M160.2,145.3c-13.9,0-23.2-13-23.2-32.3c0-20.3,10.2-35,24.2-35c5.1,0,9.5,1.8,12.7,5.2
		c4.3,4.5,6.3,11.6,5.8,20.4c-0.5,9.2-6.8,9.9-8.7,9.9c-3.2,0-5.8-1-7.5-2.9c-2.8-3-2.5-7-2.3-9.9c0.1-0.7,0.1-1.4,0.1-1.9
		c0-0.7-0.1-1.2-0.2-1.6c-1.3,1.7-3.3,6.7-3.3,15.9c0,9.1,2,12.6,3.1,13.2c0.1-0.1,0.2-0.3,0.2-0.4c0-6.1,3.7-10.3,9.1-10.3
		c5.5,0,9.6,4.6,9.6,10.7C179.8,136.8,171,145.3,160.2,145.3z M152.7,95.8L152.7,95.8z"/>
	<path class="st2" d="M47.7,131.1l0.3-26.6c0-0.8-0.2-2.2-0.9-2.2c-1.8,0-7,12.8-10.6,12.8c-2.9,0-7.1-8.3-9.3-11.8
		c-0.3-0.5-0.5-0.6-0.6-0.6c-0.4,0-0.5,1.2-0.5,2v66.7c0,5.4-2.7,8-6,8c-1.8,0-3.2-2-3.2-7.6V99c0-4.7-0.1-10.4,1.4-12.9
		c0.7-1.2,1.9-2.4,3.3-2.4c5.9,0,11.9,15.7,14,18.2c0.3,0.4,0.6,0.5,0.9,0.5s0.5-0.2,0.7-0.5c2.3-3.4,8.9-18.2,13.5-18.2
		c6.4,0,7.1,9.5,7.1,12.3v35.5c0,4-2.4,8-5.9,8C47.7,139.4,47.7,133.8,47.7,131.1z M21.7,85.8c0.3-0.4-0.4-0.6-0.6-0.6
		c-1.4-0.1-3,4.1-3.1,6.2c-0.1,0.9-0.1,2.2,0.4,2.3c0.4,0,0.8-0.3,0.8-0.6C19.4,91,20.3,88,21.7,85.8z M18.2,173.6
		c-0.5,0,0,4.7,1.7,4.7c0.3,0,0.5-0.4,0.5-0.6C20.4,176.9,19.1,173.6,18.2,173.6z M50.5,132.5c0-0.5-0.2-1.3-1-1.3
		c-0.5,0-0.6,0.6-0.6,1.1c0,1.3,1,5.6,2.5,5.6c0.2,0,0.3-0.2,0.3-0.5C51.7,136.2,50.5,134.6,50.5,132.5z"/>
	<path class="st2" d="M84.3,134.1c0-1.5-0.1-2.3-0.4-2.3c-0.4,0-0.6,0.7-1.4,1.7c-1.6,2.2-4.6,5.9-9.1,5.9
		c-7.8,0-12.7-5.6-12.7-14.8V87.9c0-2.8,1.9-4.3,4.3-4.3c2.6,0,5.3,2,5.3,4.6v35.5c0,4.1,1.8,7,4.4,7c4.3,0,8.6-7.4,8.6-12.5V89.3
		c0-3.8,1.4-5.7,4.3-5.7c2.7,0,5.3,1.6,5.3,6.8v42.3c0,5.8-2.6,6.8-5.2,6.8C85.2,139.4,84.3,137.1,84.3,134.1z M63.9,84.8
		c-0.6,0-2.3,1.9-2.3,3.3c0,0.5,0.3,0.9,0.5,0.9c0.7,0,2.2-2.9,2.2-3.5C64.3,84.9,64,84.8,63.9,84.8z M65.1,131.1
		c-0.5-1.3-0.7-2.2-1.2-2.2c-0.5,0-0.7,0.5-0.7,1.2c0,1.7,2.8,5.7,4.2,5.7c0.4,0,0.7-0.5,0.7-1.1C68.2,133.4,65.8,133.3,65.1,131.1z
		 M86.3,84.7c-0.9,0-2,2.1-2,3.4c0,0.8,0.3,0.9,0.6,0.9c0.5,0,0.6-1.8,1.6-2.8S87,84.7,86.3,84.7z M86.2,132.5
		c-0.5,0-0.6,0.9-0.6,1.9c0,1.5,0.9,3.9,1.7,3.9c0.5,0-0.5-2-0.6-3.6C86.5,133.5,86.6,132.5,86.2,132.5z"/>
	<path class="st2" d="M94.6,122.4c0-3.7,2.4-6.4,5.7-6.2c2.1,0.1,2.9,1.4,2.9,4.5c0,4.4,2.4,11.9,6.1,11.9c3.8,0,5.8-2,5.8-5.9
		c0-5.2-3.4-8.3-6.7-11.6c-8.7-8.7-12-13.9-12-18.8c0-8.2,5.5-13.3,14.4-13.3c8.1,0,13.8,8.1,13.8,14.9c0,3.6-2.4,7.1-5.5,7.1
		c-1.4,0-3.6-1.3-3.6-3.3c0-7.1-2.4-10.3-5.1-10.3s-3.8,1.4-3.8,4.3c0,3.7,1.8,6.6,8.2,13.2c7.9,8.1,10.4,12.2,10.4,16.8
		c0,8.5-6.2,14.5-15,14.5C102.6,140.2,94.6,133.6,94.6,122.4z M99.5,118.6c0-0.3,0-0.5-0.3-0.5c-2-0.2-3.5,3.3-2.6,6.2
		c0.2,0.5,0.5,0.9,0.7,0.9c0.6,0,0-1.4,0.6-3.1C98.6,120.6,99.4,119.6,99.5,118.6z M99.6,93.7c-0.4,0-0.7,0.5-0.7,0.7
		s0.2,0.5,0.6,0.5c0.3,0,0.5-0.3,0.6-0.6C100.1,94,99.8,93.7,99.6,93.7z M103.9,87.4c0.9-0.6,1.3-1.6,0.9-1.6
		c-1.5-0.2-5.2,4.2-5.3,6.2c0,0.4,0.2,0.5,0.5,0.5c0.6,0.1,0.8-1.1,1.5-2.3C102,89.5,103,88.1,103.9,87.4z"/>
	<path class="st2" d="M128.5,83.7c0-3.3,2.2-5.5,5.4-5.5c3.3,0,5.5,2.1,5.5,5.1c0,3.2-2.5,5.6-5.7,5.6
		C130.7,88.8,128.5,86.8,128.5,83.7z M129.2,136.5V96.9c0-2.3,1-6.1,4.5-6.1s5.1,3.3,5.1,5.6v40.1c0,1.9-2.2,3.3-5.1,3.3
		S129.2,138.3,129.2,136.5z M133,80.6c0-0.5-0.3-0.9-0.9-0.9c-1.4,0-2.5,2-2.5,3.8c0,0.8,0.1,2.4,0.8,2.4c0.5,0,0.5-2,0.5-2.4
		C131.2,81.4,133,81.6,133,80.6z M131.5,94.7c0.1-0.5,0.5-1.6,0.2-1.6c-1.3,0-1.7,3.1-1.7,4.2s0.3,2.4,0.8,2.4
		C131.5,99.6,131.1,96.3,131.5,94.7z"/>
	<path class="st2" d="M142,113c0-17.1,8-30,19.2-30c9,0,14.2,7.3,13.5,20.4c-0.2,3.3-1.3,5.2-3.7,5.2c-6.5,0-4.7-5.5-4.7-9.7
		c0-4-1.7-7.2-4.8-7.2c-5,0-8.7,8.9-8.7,21.5c0,11.4,2.9,18.3,8.4,18.3c2.6,0,4.9-2.8,4.9-5.5c0-2.8,1.2-5.3,4.1-5.3
		s4.6,2.6,4.6,5.7c0,7.4-6.2,14-14.6,14C149.2,140.3,142,129.2,142,113z M146.1,98.9c0.1,0.5,0.2,0.8,0.4,0.7c0.6,0,1.2-1.4,1-2.3
		c-0.1-0.3-0.2-0.5-0.5-0.5C146.4,97,146,98,146.1,98.9z M156.6,87.3c0.6-0.1,1.3-0.5,1.2-0.8c0-0.5-0.5-0.8-1.2-0.7
		c-4.1,0.3-9,7.1-8.9,9.9c0.1,0.5,0.4,0.5,0.5,0.4C149,96,153,87.7,156.6,87.3z"/>
</g>
<g>
	<path class="st0" d="M223,144.4c-4.3,0-9.3-2.3-9.3-13.3l0.1-14.3c-1.8,2-3.8,3.3-6.4,3.3c-2,0-3.8-0.9-5.4-2.4v13.6
		c0,8.9-5.7,13-11,13c-3.1,0-8.2-1.6-8.2-12.6V98.1c0-5.5,0-11.2,2.2-14.8c1.9-3,4.6-4.8,7.6-4.8c6.6,0,11.2,7.6,14.8,14.4
		c4.7-8.6,8.8-14.4,14.3-14.4c7.3,0,12.1,6.8,12.1,17.3v35.5C233.9,138.6,229,144.4,223,144.4z"/>
	<path class="st0" d="M237.2,144.8c-6.3,0-9.5-4.2-9.5-8.3V96.9c0-2.3,0.6-4.7,1.7-6.6c-1.5-1.8-2.4-4.1-2.4-6.6
		c0-6,4.5-10.5,10.4-10.5c6,0,10.5,4.3,10.5,10.1c0,2.7-1,5.1-2.6,7c1.2,1.8,1.9,4,1.9,6.2v40.1
		C247.3,141.2,242.9,144.8,237.2,144.8z M238.1,83.9L238.1,83.9z"/>
	<path class="st0" d="M248.3,144.7c-4.5,0-8.4-3.7-8.4-7.9c0-1.3,0.3-2.5,1-3.7l11-21.5c0.3-0.5,0.5-0.9,0.6-1.2
		c0-0.1-0.2-0.3-0.2-0.3l-9.5-15.7c-1.3-2.3-2-4.6-2-6.9c0-4.2,3.8-8.8,10.1-8.8c4.8,0,6.9,3.6,9.1,7.4l3.5,6.1l6.2-9.9
		c1.3-2.2,3.8-3.6,6.5-3.6c1.8,0,7,0.9,9.2,4.9c1.3,2.4,1.2,5.2-0.4,7.7l-10.9,17.3c-0.1,0.2-0.2,0.3-0.3,0.5c0,0.1,0.1,0.1,0.1,0.2
		c0.3,0.6,0.8,1.3,1.3,2.2l11.9,21.8c0.9,1.9,0.8,4.1-0.4,6.1c-1.6,2.5-5.2,5.1-9.8,5.1c-2.9,0-5.3-1.3-6.5-3.6l-6.9-12.3l-5.5,10.1
		C255.9,142.6,252.5,144.7,248.3,144.7z"/>
	<path class="st0" d="M299.6,145.3c-13.8,0-23-13-23-32.3c0-20.3,10.2-35,24.4-35c5.1,0,9.8,2,13.3,5.6c3.7,3.9,5.6,9.4,5.3,15.3
		c-0.3,6.5-3.1,12.5-7.2,17c4.3,1.1,7.1,5.3,7.1,10.9C319.4,137,310.5,145.3,299.6,145.3z M298.2,123.6c0.3,1.5,0.8,2.9,1.9,2.9
		c0.2,0,0.5-0.4,0.5-1.1c0-0.8,0.1-1.7,0.3-2.4C300.1,123.2,299.2,123.4,298.2,123.6z M297.4,109.6L297.4,109.6z M300.8,97.5
		c-1,1.5-1.9,4.1-2.6,6.6c1.5-1.6,2.6-3.7,2.6-5.7C300.9,98,300.9,97.7,300.8,97.5z M292.4,96.1L292.4,96.1z"/>
	<path class="st0" d="M322.9,185.3c-5.7,0-9.6-4.7-9.6-11.4V91.3c0-5,0-13.3,11.1-13.3h7.7c10.3,0,21.4,6.5,21.4,20.9
		c0,8.2-3.3,14.3-7.5,17.9c4.7,5,9.4,11.4,9.4,19.7c0,5-4.2,8.7-9.8,8.7c-5.7,0-8-4.7-8.8-6.5l-0.2-0.4c-0.4-0.8-0.9-1.9-1.5-3.3
		c-0.3-0.8-0.9-2.1-1.6-3.5v42.3C333.5,180.7,329.1,185.3,322.9,185.3z M333.9,102.1c0.2-0.8,0.4-1.9,0.4-3.1c0-1.5-0.2-2.1-0.3-2.3
		h-0.1V102.1z"/>
	<g>
		<path class="st2" d="M218.6,131.1l0.3-26.6c0-0.8-0.2-2.2-0.9-2.2c-1.8,0-7,12.8-10.6,12.8c-2.9,0-7.1-8.3-9.3-11.8
			c-0.3-0.5-0.5-0.6-0.6-0.6c-0.4,0-0.5,1.2-0.5,2v26.7c0,5.4-2.7,8-6,8c-1.8,0-3.2-2-3.2-7.6V99c0-4.7-0.1-10.4,1.4-12.9
			c0.7-1.2,1.9-2.4,3.3-2.4c5.9,0,11.9,15.7,14,18.2c0.3,0.4,0.6,0.5,0.9,0.5c0.3,0,0.5-0.2,0.7-0.5c2.3-3.4,8.9-18.2,13.5-18.2
			c6.4,0,7.1,9.5,7.1,12.3v35.5c0,4-2.4,8-5.9,8C218.6,139.4,218.6,133.8,218.6,131.1z M192.7,85.8c0.3-0.4-0.4-0.6-0.6-0.6
			c-1.4-0.1-3,4.1-3.1,6.2c-0.1,0.9-0.1,2.2,0.4,2.3c0.4,0,0.8-0.3,0.8-0.6C190.3,91,191.2,88,192.7,85.8z M189.2,133.6
			c-0.5,0,0,4.7,1.7,4.7c0.3,0,0.5-0.4,0.5-0.6C191.3,136.9,190.1,133.6,189.2,133.6z M221.5,132.4c0-0.5-0.2-1.3-1-1.3
			c-0.5,0-0.6,0.6-0.6,1.1c0,1.3,1,5.6,2.5,5.6c0.2,0,0.3-0.2,0.3-0.5C222.6,136.2,221.5,134.6,221.5,132.4z"/>
		<path class="st2" d="M232,83.7c0-3.3,2.2-5.5,5.4-5.5c3.3,0,5.5,2.1,5.5,5.1c0,3.2-2.5,5.6-5.7,5.6C234.2,88.8,232,86.8,232,83.7z
			 M232.7,136.5V96.9c0-2.3,1-6.1,4.5-6.1s5.1,3.3,5.1,5.6v40.1c0,1.9-2.2,3.3-5.1,3.3S232.7,138.3,232.7,136.5z M236.5,80.6
			c0-0.5-0.3-0.9-0.9-0.9c-1.4,0-2.5,2-2.5,3.8c0,0.8,0.1,2.4,0.8,2.4c0.5,0,0.5-2,0.5-2.4C234.8,81.4,236.5,81.6,236.5,80.6z
			 M235,94.7c0.1-0.5,0.5-1.6,0.2-1.6c-1.3,0-1.7,3.1-1.7,4.2s0.3,2.4,0.8,2.4C235,99.6,234.6,96.3,235,94.7z"/>
		<path class="st2" d="M244.9,136.8c0-0.4,0.1-0.8,0.4-1.3l11-21.6c0.9-1.7,1.4-2.9,1.4-3.5c0-0.7-0.5-1.8-1.2-2.8L247,91.9
			c-0.6-1.1-1.3-2.5-1.3-4.3c0-1.7,1.8-3.8,5.1-3.8c1.5,0,2.4,0.7,4.8,4.9l6.4,11.1c0.7,1.2,1.1,2,1.4,2s0.4-0.6,1.3-2l9.2-14.7
			c0.5-0.9,1.4-1.3,2.3-1.3c1.6,0,6.8,1.4,4.6,5L270,105.9c-1.1,1.8-1.4,2.9-1.4,3.3c0,0.5,0.7,1.5,2.4,4.6l11.8,21.6
			c0.5,1.1-2.1,3.9-5.8,3.9c-0.6,0-1.7-0.2-2.2-1l-9.7-17.2c-0.6-1.1-1.2-2.2-1.6-2.2s-0.8,0.6-1.8,2.4l-8.1,14.8
			c-1.4,2.5-3.3,3.3-5.2,3.3C246.5,139.7,244.9,138.2,244.9,136.8z M247.6,135.7c0.4-0.9-0.4-0.9-1.1-0.2c-0.8,0.9,0.2,2.5,1.4,2.8
			c0.9,0.2,1.8,0.2,1.2-0.6C248.7,137.3,247.3,136.3,247.6,135.7z M249.5,86.2c-0.2-0.6-0.5-0.7-0.8-0.7c-1.1,0-1.9,3-1,4.7
			c0.3,0.5,0.5,0.5,0.7,0.5c0.5-0.2,0.2-1.5,0.2-2.2C248.6,87,249.6,86.7,249.5,86.2z M276.4,86c0.8-0.8,1.2-1.3,0.5-1.3
			s-1.9,0.3-2.6,1.5c-1,1.6-0.5,2.3,0,2.3c0.4,0,0.7-0.2,0.7-0.5C275,87.6,275.5,86.8,276.4,86z M276.6,137
			c-0.8-0.5-1.8-3.2-2.3-3.2c-0.2,0-0.5,0.2-0.5,0.5c-0.1,0.9,1.4,4,2.8,4.2c0.4,0,0.9,0.1,0.9-0.3
			C277.6,138.1,277.3,137.4,276.6,137z"/>
		<path class="st2" d="M281.6,113c0-17.4,8.1-30,19.4-30c8.2,0,14,6.7,13.6,15.7c-0.5,10.5-9.1,20.2-20.1,20.2
			c-1.2,0-1.5,0.3-1.5,1.3c0,7.7,3,11.3,7.2,11.3c3.1,0,5.5-2.6,5.5-6.1c0-2.9,1.7-4.8,4.2-4.8c2.7,0,4.5,2.4,4.5,6.2
			c0,7.3-6.7,13.5-14.7,13.5C288.9,140.3,281.6,129.4,281.6,113z M285.8,99.2c0.1,0.5,0.2,0.8,0.4,0.7c0.6,0,1.2-1.4,1-2.3
			c-0.1-0.3-0.2-0.5-0.5-0.5C286.2,97.3,285.7,98.2,285.8,99.2z M296.3,87.6c0.6-0.1,1.3-0.5,1.2-0.8c0-0.5-0.5-0.8-1.2-0.7
			c-4.1,0.3-9,7.1-8.9,9.9c0.1,0.5,0.4,0.5,0.5,0.4C288.7,96.3,292.7,87.9,296.3,87.6z M293.9,111.3c6.2,0,11.9-6.8,11.9-12.9
			c0-3.9-2.1-6.7-4.9-6.7c-6.2,0-9.6,17.4-8.3,19.3C292.8,111.2,293.3,111.3,293.9,111.3z"/>
		<g>
			<path class="st2" d="M341,136.2c-1.7-3.3-7.3-17.8-10.4-17.8h-0.9c-0.7,0-1.2,1-1.2,2.5v53c0,3.8-2,6.3-5.6,6.3
				c-3.8,0-4.6-4.3-4.6-6.4V91.3c0-6.4,0.7-8.3,6.1-8.3h7.7c8.2,0,16.4,4.7,16.4,15.9c0,9.5-5.3,14.9-9.4,16.4
				c-0.3,0.1-0.6,0.4-0.6,0.7c0,0.2,0.1,0.5,0.5,0.8c5.1,5.1,11.4,11.3,11.4,19.7c0,2.5-2.6,3.7-4.8,3.7
				C342.8,140.3,341.9,137.9,341,136.2z M321.8,176.7c-1-2.4-0.9-5.3-1.7-5.3c-0.3,0-0.7,0.6-0.7,1.7c0,1,0.9,5.7,2.5,5.7
				c0.3,0,0.7-0.3,0.7-0.9C322.7,177.2,322.1,177.3,321.8,176.7z M339.3,98.9c0-4.8-1.6-7.3-6.4-7.5l-2.2-0.1
				c-1.6-0.1-1.8,0.4-1.8,2.2v14.8c0,0.8,0.6,1.2,1.7,1.2h2C336.3,109.5,339.3,105,339.3,98.9z M344,137.1c-0.3-0.5-1-2.2-1.1-3.4
				c0-1-0.5-2.1-0.7-2.1c-0.5,0.1-0.7,1.6-0.6,3.3s1.2,4.4,2.9,4.3c0.5,0,0.8-0.3,0.8-0.6C345.2,138.1,344.3,137.5,344,137.1z"/>
		</g>
	</g>
</g>
<path class="st0" d="M44.7,183.2c0.1-0.5,0-1.3-0.8-1.4c-0.4-0.1-0.7,0.5-0.8,1c-0.2,1.2,0,5.7,1.5,6c0.2,0,0.3-0.1,0.3-0.4
	C45.2,187,44.3,185.3,44.7,183.2z"/>
<path class="st0" d="M45.6,151.4c-0.9,0-2,2.1-2,3.4c0,0.8,0.3,0.9,0.6,0.9c0.5,0,0.6-1.8,1.6-2.8C46.9,152,46.3,151.4,45.6,151.4z"
	/>
<g>
	<path class="st0" d="M51.1,181.7v-20.8c0-2.8,0.7-4.1,2.9-4.1c1.2,0,1.9,0.9,1.9,1.5c0,1,0,1.7,0.3,1.7c0.4,0,1.5-3.5,5-3.5
		c4.2,0,7.2,3.5,7.2,7.9c0,7.9-7.3,6.9-7.3,7.3s8.2-0.6,8.2,7.1c0,5.2-5.3,8-9.5,8h-6.3C51.7,186.7,51.1,185.4,51.1,181.7z
		 M52.6,159.8c0-1.2,1.4-1.9,1.4-2.2c0-0.2-0.1-0.2-0.5-0.2c-0.9,0-1.8,1.2-1.8,2.8c0,0.7,0.2,1.3,0.5,1.3c0.2,0,0.5-0.3,0.5-0.8
		C52.9,160.6,52.6,160.4,52.6,159.8z M52.7,179.5c0-1.8-0.2-2-0.4-2c-0.1,0-0.3,0.1-0.3,2c0,2.8,0,3.6,0.4,3.6
		C52.7,183.1,52.7,180,52.7,179.5z M52,184.3c0,0.5,0.2,0.6,0.4,0.6c0.1,0,0.3-0.3,0.3-0.6c0-0.4,0-0.5-0.3-0.5
		C52.1,183.8,52,184,52,184.3z M59.1,169.1c2.2,0,3.8-1.8,3.8-4.6c0-1.9-0.9-3.4-2.6-3.4c-2.3,0-3.6,2-3.6,3.9v2.5
		c0,0.9,0.4,1.6,0.9,1.6H59.1z M59.4,182.2c2.3,0,4.4-1.2,4.4-4.1s-2.2-3.8-5-3.8h-1.2c-0.5,0-0.9,0.7-0.9,1.9v4.2
		c0,1.6,0.1,1.8,1.4,1.8H59.4z"/>
	<path class="st0" d="M70.6,172.5c0-9.3,4.4-16.1,10.4-16.1c4.4,0,7.5,3.6,7.3,8.4c-0.3,5.6-4.9,10.8-10.8,10.8
		c-0.6,0-0.8,0.1-0.8,0.7c0,4.1,1.6,6.1,3.9,6.1c1.7,0,3-1.4,3-3.3c0-1.6,0.9-2.6,2.2-2.6c1.5,0,2.4,1.3,2.4,3.4
		c0,3.9-3.6,7.2-7.9,7.2C74.5,187.1,70.6,181.3,70.6,172.5z M72.8,165c0,0.2,0.1,0.4,0.2,0.4c0.3,0,0.6-0.8,0.5-1.2
		c0-0.1-0.1-0.3-0.2-0.2C73,164,72.8,164.5,72.8,165z M78.4,158.8c0.3,0,0.7-0.2,0.6-0.4c0-0.2-0.3-0.4-0.6-0.4
		c-2.2,0.1-4.9,3.8-4.8,5.3c0,0.2,0.2,0.2,0.2,0.2C74.4,163.5,76.5,159,78.4,158.8z M77.2,171.5c3.4,0,6.4-3.6,6.4-7
		c0-2.1-1.1-3.6-2.6-3.6c-3.3,0-5.2,9.3-4.5,10.4C76.6,171.5,76.8,171.5,77.2,171.5z"/>
	<path class="st0" d="M89.9,172.5c0-9.9,3-15.8,8.2-16c3.7-0.2,4.7,2.7,5.1,2.7c0.4,0,0-2.8,2.4-2.8c1.2,0,2.2,0.7,2.2,1.6v18.9
		c0,2.6,0.3,5.2,0.3,6.5c0,2.3-1,3.8-2.3,3.8c-1.6,0-2.6-1.9-2.6-4.7c0-0.8-0.1-1.3-0.2-1.3c-0.6,0-1.5,5.9-6,5.9
		C92.4,187,89.9,181.6,89.9,172.5z M94.8,184.6c-0.1-0.3-1.4-1.6-1.7-2.6c-0.2-0.5-0.3-1.9-0.7-1.9c-0.3,0-0.3,1,0.1,2.3
		c0.5,1.3,1.4,2.7,1.9,2.7C94.7,185.1,94.9,184.8,94.8,184.6z M102.4,168.9c0-4.3-1.6-7.9-3.4-7.9c-2.1,0-3.9,4.9-3.9,10.8
		c0,5.3,1.4,10.5,2.9,10.5C99.7,182.3,102.4,174.4,102.4,168.9z M95.9,184.6c-0.3,0-0.6,0.2-0.6,0.6c0,0.3,0.2,0.6,0.4,0.6
		C96.1,185.8,96.6,184.6,95.9,184.6z M104.5,183.6c0,0,0-0.5-0.3-0.5c-0.2,0-0.3,0.2-0.3,0.6c0,1,0.7,2.4,1.3,2.4
		c0.2,0,0.5-0.2,0.5-0.4C105.6,185.2,104.5,184.6,104.5,183.6z M104.7,158.6c0.2-0.6,0.4-1.1,0.4-1.4c0-0.2-0.1-0.2-0.2-0.2
		c-0.3,0-1,0.7-1,1.8c0,0.5,0.1,0.9,0.3,0.9C104.5,159.6,104.6,159,104.7,158.6z"/>
	<path class="st0" d="M111.1,176.6v-8.4h-0.5c-1,0-1.5-0.8-1.5-1.9s0.3-1.8,1.5-1.8h0.5v-4.8c0-2.4,0.9-3.2,2.3-3.2s2.7,0.9,2.7,3.4
		v4.6h1.5c1.2,0,1.6,0.6,1.6,1.5c0,1.3-0.4,2.2-1.4,2.2h-1.7v9.1c0,3.5,0.1,4.9,0.8,4.9c0.1,0,0.2,0,0.4,0l0.8-0.1
		c1.4,0,1.8,1,1.8,2.2c0,1-0.3,2.2-3.8,2.2C111.1,186.7,111.1,181.7,111.1,176.6z M110,165.2c-0.3,0-0.6,0.6-0.6,1.3
		c0,0.4,0.1,1.1,0.5,1.1c0.3,0,0-0.9,0-1.5C110,165.7,110.1,165.2,110,165.2z M112.7,157.3c-0.6,0-1,1.4-1,1.9c0,0.7,0.1,1,0.2,1
		c0.2,0,0.3-1,0.4-1.4C112.6,158.1,113.2,157.3,112.7,157.3z M112.9,181.8c0-0.5-0.4-0.8-0.6-0.8c-0.4,0-0.3,0.7-0.3,1.1
		c0,0.5,0.7,2.7,1.4,2.7c0.2,0,0.4-0.3,0.4-0.5C113.7,184,112.9,182.7,112.9,181.8z"/>
	<path class="st0" d="M134.4,182.4v-20.8c0-3.5,2.6-5,5.6-5h2.2c5.5,0,10.7,5.3,10.7,14.2c0,9.5-5.3,15.8-11.4,15.8h-2.7
		C136.5,186.7,134.4,185.7,134.4,182.4z M136.2,178.8c0-1.8-0.1-2.7-0.3-2.7c-0.2,0-0.4,0.7-0.4,2.7c0,2.9,0,3.8,0.4,3.8
		C136.4,182.6,136.2,179.5,136.2,178.8z M135.5,183.8c0,0.5,0.2,0.9,0.4,0.9c0.2,0,0.3-0.5,0.3-0.9c0-0.4,0-0.5-0.4-0.5
		C135.6,183.3,135.5,183.5,135.5,183.8z M141.3,182c3.4,0,6-4.5,6-11.3c0-6.1-2.2-9.3-5.3-9.3h-0.7c-1.1,0-1.4,0.3-1.4,1.9v16.9
		c0,1.3,0.2,1.8,0.7,1.8H141.3z"/>
	<path class="st0" d="M154.2,183.5v-22.4c0-3.5,0.6-4.6,2.3-4.6c1.5,0,2.4,1.3,2.4,3.5c0,0.7,0,1.1,0.1,1.1c0.1,0,0.1-0.2,0.2-0.5
		c0.3-0.9,1.4-4.1,4.3-4.1c1.3,0,2.1,0.9,2.1,2.1c0,1.3-0.5,2.7-1.8,2.7c-2.6,0-4.6,5.3-4.6,9.4V184c0,1.9-1.6,2.7-3,2.7
		C154.8,186.7,154.2,185.5,154.2,183.5z M155.5,157.4c-0.3,0-0.7,0.9-0.7,1.6s0.2,1,0.3,1c0.3,0,0.3-1.1,0.3-1.3
		C155.6,158.2,156,157.4,155.5,157.4z M155.1,182.7c-0.1,0-0.2,0.3-0.2,0.8c0,1.2,0.4,2.2,0.8,2.2c0.1,0,0.3,0,0.3-0.3
		c0-0.2-0.3-0.6-0.5-1.2C155.3,183.4,155.3,182.7,155.1,182.7z"/>
	<path class="st0" d="M165.1,172.2c0-7.1,2-15.8,8.8-15.8s8.8,7.5,8.8,15.4S180.8,187,174,187S165.1,179.3,165.1,172.2z
		 M167.4,163.5c-0.3,0-0.5,0.4-0.5,0.8c0,0.5,0.3,0.7,0.5,0.7c0.1,0,0.4-0.2,0.4-0.8C167.8,163.6,167.7,163.5,167.4,163.5z
		 M170.4,159.4c0.4-0.3-0.1-0.8-0.2-0.8c-0.7,0-2.5,3-2.5,4.2c0,0.3,0,0.4,0.2,0.4c0.1,0,0.3-0.3,0.6-1.1
		C168.8,161.4,169.6,160,170.4,159.4z M177.8,171.7c0-2.8-0.7-12.3-3.8-12.3c-3.2,0-3.7,9.7-3.7,12.3c0,4.1,0.6,12.2,3.7,12.2
		C177.2,183.9,177.8,175.8,177.8,171.7z"/>
	<path class="st0" d="M184.3,160.8c0-2.8,0.7-4.1,2.9-4.1c1.2,0,1.9,0.9,1.9,1.5c0,1,0.1,1.7,0.3,1.7c0.4,0,1.5-3.5,5-3.5
		c4.2,0,7.2,4.2,7.2,10.6c0,7.5-3.3,12.3-8.6,12.4l-2.2,0c-1,0-1,1.5-1,2.7v1.4c0,2.3-1.6,3.2-2.9,3.2c-1.3,0-2.6-0.8-2.6-3.4V160.8
		z M185.6,182.8c0-0.7-0.1-1.2-0.3-1.2c-0.3,0-0.4,0.6-0.4,1.4c0,1.6,0.5,2.7,1.2,2.7c0.1,0,0.4-0.1,0.4-0.3c0-0.1-0.1-0.3-0.2-0.4
		C185.9,184.6,185.6,183.7,185.6,182.8z M185.8,159.8c0-1.2,1.4-1.9,1.4-2.2c0-0.2-0.1-0.2-0.5-0.2c-0.9,0-1.8,1.2-1.8,2.8
		c0,0.7,0.2,1.3,0.5,1.3c0.2,0,0.5-0.3,0.5-0.8C186,160.6,185.8,160.4,185.8,159.8z M192.2,174.9c2.2,0,3.8-3.1,3.8-7.7
		c0-3.9-0.8-6.1-2.6-6.1c-2.3,0-3.6,2-3.6,3.9v8.4c0,0.9,0.4,1.6,0.9,1.6H192.2z"/>
	<path class="st0" d="M233.3,182.2l0.1-14.3c0-0.4-0.1-1.2-0.5-1.2c-1,0-3.7,6.9-5.7,6.9c-1.6,0-3.8-4.5-5-6.3
		c-0.1-0.2-0.2-0.3-0.3-0.3c-0.2,0-0.2,0.6-0.2,1.1v14.3c0,2.9-1.5,4.3-3.2,4.3c-1,0-1.7-1.1-1.7-4.1v-17.6c0-2.5,0-5.6,0.8-7
		c0.4-0.6,1-1.3,1.8-1.3c3.2,0,6.4,8.5,7.5,9.8c0.1,0.2,0.3,0.3,0.5,0.3c0.1,0,0.3-0.1,0.4-0.3c1.2-1.8,4.8-9.8,7.2-9.8
		c3.5,0,3.8,5.1,3.8,6.6v19.1c0,2.1-1.3,4.3-3.2,4.3C233.3,186.7,233.3,183.6,233.3,182.2z M219.3,157.8c0.1-0.2-0.2-0.3-0.3-0.3
		c-0.8,0-1.6,2.2-1.7,3.3c0,0.5,0,1.2,0.2,1.2c0.2,0,0.4-0.1,0.4-0.3C218.1,160.6,218.6,159,219.3,157.8z M217.4,183.5
		c-0.3,0,0,2.5,0.9,2.5c0.1,0,0.2-0.2,0.2-0.3C218.6,185.3,217.9,183.5,217.4,183.5z M234.8,182.9c0-0.3-0.1-0.7-0.5-0.7
		c-0.2,0-0.3,0.3-0.3,0.6c0,0.7,0.5,3,1.4,3c0.1,0,0.1-0.1,0.1-0.2C235.4,184.9,234.8,184.1,234.8,182.9z"/>
	<path class="st0" d="M240.5,156.7c0-1.8,1.2-3,2.9-3s3,1.1,3,2.7c0,1.7-1.4,3-3.1,3C241.6,159.5,240.5,158.4,240.5,156.7z
		 M240.8,185.1v-21.3c0-1.2,0.5-3.3,2.4-3.3c1.9,0,2.7,1.8,2.7,3v21.5c0,1-1.2,1.8-2.7,1.8S240.8,186.1,240.8,185.1z M242.9,155.1
		c0-0.3-0.1-0.5-0.5-0.5c-0.8,0-1.4,1.1-1.4,2c0,0.4,0,1.3,0.4,1.3c0.3,0,0.2-1.1,0.3-1.3C241.9,155.5,242.9,155.6,242.9,155.1z
		 M242.1,162.6c0-0.2,0.3-0.9,0.1-0.9c-0.7,0-0.9,1.7-0.9,2.2s0.1,1.3,0.4,1.3C242.1,165.3,241.8,163.5,242.1,162.6z"/>
	<path class="st0" d="M247.4,185.2c0-0.2,0-0.4,0.2-0.7l5.9-11.6c0.5-0.9,0.8-1.6,0.8-1.9c0-0.4-0.3-1-0.6-1.5l-5.1-8.5
		c-0.3-0.6-0.7-1.4-0.7-2.3c0-0.9,1-2,2.7-2c0.8,0,1.3,0.4,2.6,2.6l3.5,6c0.4,0.6,0.6,1.1,0.7,1.1c0.1,0,0.2-0.3,0.7-1.1l5-7.9
		c0.3-0.5,0.8-0.7,1.2-0.7c0.9,0,3.6,0.8,2.5,2.7l-5.8,9.3c-0.6,1-0.8,1.6-0.8,1.8s0.4,0.8,1.3,2.5l6.3,11.6
		c0.3,0.6-1.1,2.1-3.1,2.1c-0.3,0-0.9-0.1-1.2-0.5l-5.2-9.2c-0.3-0.6-0.6-1.2-0.9-1.2s-0.4,0.3-1,1.3l-4.3,8
		c-0.7,1.4-1.8,1.8-2.8,1.8C248.3,186.8,247.4,186,247.4,185.2z M248.8,184.7c0.2-0.5-0.2-0.5-0.6-0.1c-0.4,0.5,0.1,1.4,0.7,1.5
		c0.5,0.1,1,0.1,0.6-0.3C249.4,185.5,248.7,185,248.8,184.7z M249.9,158.1c-0.1-0.3-0.2-0.4-0.4-0.4c-0.6,0-1,1.6-0.5,2.5
		c0.1,0.2,0.2,0.3,0.4,0.2c0.3-0.1,0.1-0.8,0.1-1.2C249.4,158.5,249.9,158.3,249.9,158.1z M264.3,158c0.4-0.4,0.6-0.7,0.3-0.7
		c-0.4,0-1,0.1-1.4,0.8c-0.5,0.9-0.3,1.2,0,1.2c0.2,0,0.4-0.1,0.4-0.3C263.6,158.8,263.8,158.4,264.3,158z M264.4,185.3
		c-0.4-0.2-1-1.7-1.2-1.7c-0.1,0-0.2,0.1-0.2,0.3c0,0.5,0.7,2.1,1.5,2.2c0.2,0,0.5,0,0.5-0.1C265,185.9,264.8,185.6,264.4,185.3z"/>
	<path class="st0" d="M267.1,172.5c0-9.3,4.4-16.1,10.4-16.1c4.4,0,7.5,3.6,7.3,8.4c-0.3,5.6-4.9,10.8-10.8,10.8
		c-0.6,0-0.8,0.1-0.8,0.7c0,4.1,1.6,6.1,3.9,6.1c1.7,0,3-1.4,3-3.3c0-1.6,0.9-2.6,2.2-2.6c1.5,0,2.4,1.3,2.4,3.4
		c0,3.9-3.6,7.2-7.9,7.2C271,187.1,267.1,181.3,267.1,172.5z M269.4,165c0,0.2,0.1,0.4,0.2,0.4c0.3,0,0.6-0.8,0.5-1.2
		c0-0.1-0.1-0.3-0.2-0.2C269.5,164,269.3,164.5,269.4,165z M275,158.8c0.3,0,0.7-0.2,0.6-0.4c0-0.2-0.3-0.4-0.6-0.4
		c-2.2,0.1-4.9,3.8-4.8,5.3c0,0.2,0.2,0.2,0.2,0.2C270.9,163.5,273,159,275,158.8z M273.7,171.5c3.4,0,6.4-3.6,6.4-7
		c0-2.1-1.1-3.6-2.6-3.6c-3.3,0-5.2,9.3-4.5,10.4C273.1,171.5,273.4,171.5,273.7,171.5z"/>
	<path class="st0" d="M286.3,183.5v-22.4c0-3.5,0.6-4.6,2.3-4.6c1.5,0,2.4,1.3,2.4,3.5c0,0.7,0,1.1,0.1,1.1c0.1,0,0.1-0.2,0.2-0.5
		c0.3-0.9,1.4-4.1,4.3-4.1c1.3,0,2.1,0.9,2.1,2.1c0,1.3-0.5,2.7-1.8,2.7c-2.6,0-4.6,5.3-4.6,9.4V184c0,1.9-1.6,2.7-3,2.7
		C286.9,186.7,286.3,185.5,286.3,183.5z M287.7,157.4c-0.3,0-0.7,0.9-0.7,1.6s0.2,1,0.3,1c0.3,0,0.3-1.1,0.3-1.3
		C287.7,158.2,288.2,157.4,287.7,157.4z M287.2,182.7c-0.1,0-0.2,0.3-0.2,0.8c0,1.2,0.4,2.2,0.8,2.2c0.1,0,0.3,0,0.3-0.3
		c0-0.2-0.3-0.6-0.5-1.2C287.4,183.4,287.4,182.7,287.2,182.7z"/>
</g>
</svg>
