<?xml version="1.0" encoding="utf-8"?>
<!-- Generator: Adobe Illustrator 27.2.0, SVG Export Plug-In . SVG Version: 6.00 Build 0)  -->
<svg version="1.1" id="Layer_1" xmlns="http://www.w3.org/2000/svg" xmlns:xlink="http://www.w3.org/1999/xlink" x="0px" y="0px"
	 viewBox="0 0 700 700" style="enable-background:new 0 0 700 700;" xml:space="preserve">
<style type="text/css">
	.st0{fill:#009600;}
	.st1{fill:#FFFFFF;}
</style>
<path class="st0" d="M500,0H0v500c0,110.5,89.5,200,200,200h500V200C700,89.5,610.5,0,500,0z"/>
<g>
	<path class="st1" d="M534.4,318.6c0-101.8-82.6-184.4-184.4-184.4s-184.4,82.6-184.4,184.4c0,93.6,69.7,170.9,160.1,182.8v23.1
		h-14.9v37.9h78.5v-37.9h-14.9v-23.1C464.7,489.5,534.4,412.2,534.4,318.6z M325.7,470.1c-73.1-11.7-129.2-75.2-129.2-151.6
		c0-84.6,68.9-153.5,153.5-153.5s153.5,68.9,153.5,153.5c0,76.4-56,139.9-129.2,151.6v-17.9c63.4-11.5,111.6-67.1,111.6-133.7
		c0-74.9-61-135.9-135.9-135.9s-135.9,61-135.9,135.9c0,66.6,48.2,122.2,111.6,133.7V470.1z M370.8,434.5h-2.9v18.8
		c-2.1,0.3-4.2,0.5-6.4,0.7v72.9h-23.1V454c-2.1-0.2-4.3-0.4-6.4-0.7v-18.8h-2.9c-1.2,0-2.4-0.2-3.5-0.5c-5.4-1.5-9.4-6.5-9.4-12.4
		v-30.3c0-7.1,5.8-12.9,12.9-12.9h41.6c7.1,0,12.9,5.8,12.9,12.9v30.3c0,5.9-4,10.9-9.4,12.4C373.2,434.3,372,434.5,370.8,434.5z"/>
	<path class="st1" d="M550,548.8l-37.8-65.5c-3.9-6.7-12.4-9-19.1-5.1l-4.9,2.8c-6.7,3.9-9,12.4-5.1,19.1l37.8,65.5
		c3.9,6.7,12.4,9,19.1,5.1l4.9-2.8C551.5,564.1,553.8,555.5,550,548.8z"/>
	<path class="st1" d="M211.8,481l-4.9-2.8c-6.7-3.9-15.3-1.6-19.1,5.1L150,548.8c-3.9,6.7-1.6,15.3,5.1,19.1l4.9,2.8
		c6.7,3.9,15.3,1.6,19.1-5.1l37.8-65.5C220.8,493.5,218.5,484.9,211.8,481z"/>
</g>
</svg>
