<?xml version="1.0" encoding="UTF-8"?><svg id="Layer_1" xmlns="http://www.w3.org/2000/svg" viewBox="0 0 527.69 527.69"><rect width="527.69" height="527.69"/><circle cx="263.85" cy="232.43" r="184.41" fill="#fff"/><path d="m263.85,385.92c-84.64,0-153.5-68.86-153.5-153.5s68.86-153.5,153.5-153.5,153.5,68.86,153.5,153.5-68.86,153.5-153.5,153.5Zm0-289.37c-74.92,0-135.88,60.96-135.88,135.88s60.96,135.88,135.88,135.88,135.88-60.96,135.88-135.88-60.96-135.88-135.88-135.88Z"/><rect x="245.9" y="342.27" width="35.88" height="104.79"/><path d="m288.17,453.44h-48.64v-117.55h48.64v117.55Zm-35.88-12.76h23.12v-92.02h-23.12v92.02Z" fill="#fff"/><rect x="230.13" y="292.2" width="67.44" height="56.11" rx="12.92" ry="12.92"/><rect x="413.51" y="386.54" width="33.66" height="103.61" rx="14.01" ry="14.01" transform="translate(-161.52 273.9) rotate(-30)" fill="#fff"/><rect x="80.51" y="386.54" width="33.66" height="103.61" rx="14.01" ry="14.01" transform="translate(-37.53 866.63) rotate(-150)" fill="#fff"/><rect x="224.61" y="438.34" width="78.48" height="37.89" fill="#fff"/></svg>