<?xml version="1.0" encoding="utf-8"?>
<!-- Generator: Adobe Illustrator 27.2.0, SVG Export Plug-In . SVG Version: 6.00 Build 0)  -->
<svg version="1.1" id="Layer_1" xmlns="http://www.w3.org/2000/svg" xmlns:xlink="http://www.w3.org/1999/xlink" x="0px" y="0px"
	 viewBox="0 0 700 700" style="enable-background:new 0 0 700 700;" xml:space="preserve">
<style type="text/css">
	.st0{fill:#FF0000;}
	.st1{fill:#FFFFFF;}
</style>
<path class="st0" d="M0,0h500c110.5,0,200,89.5,200,200v500H200C89.5,700,0,610.5,0,500V0z"/>
<path class="st1" d="M463.1,113.8L113.8,463.1l123.1,123.1l69.3-69.3L227,437.7l279.9-280L463.1,113.8z M468,151.3l12.8,12.7
	l-56.5,56.6l-12.8-12.8L468,151.3z M519.7,170.4L507,183.1l66.5,66.5l12.7-12.7L519.7,170.4z M494.2,195.9l-12.6,12.7l66.5,66.5
	l12.6-12.7L494.2,195.9z M468.8,221.4L456.1,234l66.5,66.5l12.6-12.7L468.8,221.4z M443.3,246.8l-12.6,12.7l66.5,66.4l12.6-12.6
	L443.3,246.8z M369,250.3l12.8,12.8l-11.3,11.3l-12.8-12.8L369,250.3z M417.9,272.3L405.2,285l66.5,66.4l12.6-12.6L417.9,272.3z
	 M343.6,275.7l12.8,12.8l-11.3,11.3L332.3,287L343.6,275.7z M392.4,297.8l-12.6,12.6l66.4,66.4l12.7-12.6L392.4,297.8z M309.6,309.7
	l12.8,12.8l-33.9,33.9l-12.8-12.8L309.6,309.7z M367,323.2l-12.7,12.7l66.5,66.4l12.6-12.6L367,323.2z M341.4,348.7l-12.6,12.6
	l66.5,66.5l12.6-12.6L341.4,348.7z M253.1,366.2l12.8,12.8l-34,34l-12.8-12.8L253.1,366.2z M316,374.1l-12.6,12.7l66.4,66.4
	l12.7-12.6L316,374.1z M290.6,399.6l-12.7,12.6l66.5,66.5l12.7-12.6L290.6,399.6z M180.3,416.5l35.3,35.3L169,498.5l-29-29l-6.3-6.4
	L180.3,416.5z M265.1,425l-12.7,12.7l66.5,66.5l12.7-12.7L265.1,425z M180.3,441.9l-21.2,21.2l9.9,10l21.2-21.3L180.3,441.9z
	 M219.1,468.1l12.8,12.8L198,514.8L185.2,502L219.1,468.1z M241.8,490.7l12.8,12.8l-34,33.9l-12.8-12.8L241.8,490.7z M264.4,513.3
	l12.8,12.8l-33.9,34l-12.8-12.8L264.4,513.3z"/>
</svg>
