<?xml version="1.0" encoding="utf-8"?>
<!-- Generator: Adobe Illustrator 27.2.0, SVG Export Plug-In . SVG Version: 6.00 Build 0)  -->
<svg version="1.1" id="Layer_1" xmlns="http://www.w3.org/2000/svg" xmlns:xlink="http://www.w3.org/1999/xlink" x="0px" y="0px"
	 viewBox="0 0 700 700" style="enable-background:new 0 0 700 700;" xml:space="preserve">
<style type="text/css">
	.st0{fill:#009600;}
	.st1{fill:#FFFFFF;}
</style>
<path class="st0" d="M0,0h500c110.5,0,200,89.5,200,200v500H200C89.5,700,0,610.5,0,500V0z"/>
<path class="st1" d="M297.2,118.4c-41.8-0.3-44.4,106.4-84.1,111.2c-17.6,2.1-37.4-48.8-41.7-38.3c-8.8,21.4,26.9,79.4,59.2,76.6
	c23.8-2.2,48.4-82.1,54.2-37.5l38.3,231.1c4.3-5.7,9.1-10.9,14.5-15.6c7.7-6.7,16.3-12.4,25.4-16.6l-48.8-305.8
	c-5.5-3.1-10.5-4.7-15-5.1C298.5,118.4,297.8,118.4,297.2,118.4z M403,439.3c-3.2-0.1-6.2-0.1-9.1,0.1c-14.3,0.9-31.3,8.7-44.5,20.2
	c-13.1,11.4-22,26.3-22.9,40.1c-1.2,17.7,7.6,38.1,22,54.7c14.3,16.5,33.9,28.8,51.7,31.6c20.8,3.3,49.7-3,72.5-15.9
	s38.7-31.5,39.2-50.9v-0.1c0.4-14.1-6.7-27.9-18.3-40.1c1.7,3.6,2.7,7.9,2.7,12.3c0,11.7-6.4,21.3-14.4,21.3
	c-8,0-14.5-9.4-14.5-21.2c0,0,0-0.1,0-0.1c0-11.7,6.5-21.2,14.5-21.2c0,0,0,0,0,0c0.8,0,1.5,0.1,2.3,0.3c-3.7-3-7.6-5.9-11.9-8.6
	C451.2,448.5,424.8,440.1,403,439.3L403,439.3z M415.5,468.9c9.3,0,16.8,11.1,16.8,24.8c0,13.7-7.5,24.8-16.8,24.8
	c-9.3,0-16.8-11.1-16.8-24.8C398.7,480,406.2,468.9,415.5,468.9z"/>
</svg>
