<?xml version="1.0" encoding="utf-8"?>
<!-- Generator: Adobe Illustrator 27.2.0, SVG Export Plug-In . SVG Version: 6.00 Build 0)  -->
<svg version="1.1" id="Layer_1" xmlns="http://www.w3.org/2000/svg" xmlns:xlink="http://www.w3.org/1999/xlink" x="0px" y="0px"
	 viewBox="0 0 700 700" style="enable-background:new 0 0 700 700;" xml:space="preserve">
<style type="text/css">
	.st0{fill:#FF0000;}
	.st1{fill:#FFFFFF;}
</style>
<path class="st0" d="M0,0h500c110.5,0,200,89.5,200,200v500H200C89.5,700,0,610.5,0,500V0z"/>
<path class="st1" d="M118,174v352h64V382h-16V174H118z M214,174v208h-16v144h64V382h-16V174H214z M294,174v208h-16v144h64V382h-16
	V174H294z M374,174v208h-16v144h64V174H374z M438,174v352h64V382h-16V174H438z M534,174v208h-16v144h64V174H534z"/>
</svg>
